<?xml version="1.0" encoding="utf-8"?>
<!-- Generator: Adobe Illustrator 16.0.0, SVG Export Plug-In . SVG Version: 6.00 Build 0)  -->
<!DOCTYPE svg PUBLIC "-//W3C//DTD SVG 1.1//EN" "http://www.w3.org/Graphics/SVG/1.1/DTD/svg11.dtd">
<svg version="1.1" id="Layer_1" xmlns="http://www.w3.org/2000/svg" xmlns:xlink="http://www.w3.org/1999/xlink" x="0px" y="0px"
	 width="340.496px" height="198.906px" viewBox="-87.16 0 340.496 198.906" enable-background="new -87.16 0 340.496 198.906"
	 xml:space="preserve">
<g>
	<g>
		<path fill="none" stroke="#CCCCCC" stroke-width="8" stroke-miterlimit="10" d="M162.279,175.229
			c0,10.867-8.811,19.679-19.68,19.679H23.679C12.811,194.906,4,186.096,4,175.229V23.679C4,12.811,12.811,4,23.679,4h118.922
			c10.867,0,19.678,8.811,19.678,19.679V175.229L162.279,175.229z"/>
		<line fill="none" stroke="#CCCCCC" stroke-width="8" stroke-miterlimit="10" x1="27.45" y1="27.256" x2="138.829" y2="27.256"/>
		<line fill="none" stroke="#CCCCCC" stroke-width="8" stroke-miterlimit="10" x1="27.45" y1="45.305" x2="138.829" y2="45.305"/>
		<line fill="none" stroke="#CCCCCC" stroke-width="8" stroke-miterlimit="10" x1="27.45" y1="45.305" x2="138.829" y2="45.305"/>
		<line fill="none" stroke="#CCCCCC" stroke-width="8" stroke-miterlimit="10" x1="27.45" y1="63.354" x2="138.829" y2="63.354"/>
		<line fill="none" stroke="#CCCCCC" stroke-width="8" stroke-miterlimit="10" x1="27.45" y1="63.354" x2="138.829" y2="63.354"/>
		<line fill="none" stroke="#CCCCCC" stroke-width="8" stroke-miterlimit="10" x1="27.45" y1="81.404" x2="138.829" y2="81.404"/>
		<line fill="none" stroke="#CCCCCC" stroke-width="8" stroke-miterlimit="10" x1="27.45" y1="81.404" x2="138.829" y2="81.404"/>
		<line fill="none" stroke="#CCCCCC" stroke-width="8" stroke-miterlimit="10" x1="27.45" y1="99.453" x2="138.829" y2="99.453"/>
		<line fill="none" stroke="#CCCCCC" stroke-width="8" stroke-miterlimit="10" x1="27.45" y1="99.453" x2="138.829" y2="99.453"/>
		<line fill="none" stroke="#CCCCCC" stroke-width="8" stroke-miterlimit="10" x1="27.45" y1="117.502" x2="138.829" y2="117.502"/>
		<line fill="none" stroke="#CCCCCC" stroke-width="8" stroke-miterlimit="10" x1="27.45" y1="117.502" x2="138.829" y2="117.502"/>
		<line fill="none" stroke="#CCCCCC" stroke-width="8" stroke-miterlimit="10" x1="27.45" y1="135.552" x2="138.829" y2="135.552"/>
		<line fill="none" stroke="#CCCCCC" stroke-width="8" stroke-miterlimit="10" x1="27.45" y1="135.552" x2="138.829" y2="135.552"/>
		<line fill="none" stroke="#CCCCCC" stroke-width="8" stroke-miterlimit="10" x1="27.45" y1="135.552" x2="138.829" y2="135.552"/>
		<line fill="none" stroke="#CCCCCC" stroke-width="8" stroke-miterlimit="10" x1="27.45" y1="153.602" x2="138.829" y2="153.602"/>
		<line fill="none" stroke="#CCCCCC" stroke-width="8" stroke-miterlimit="10" x1="27.45" y1="153.602" x2="138.829" y2="153.602"/>
		<line fill="none" stroke="#CCCCCC" stroke-width="8" stroke-miterlimit="10" x1="27.45" y1="171.65" x2="121.321" y2="171.65"/>
		<line fill="none" stroke="#CCCCCC" stroke-width="8" stroke-miterlimit="10" x1="27.45" y1="171.65" x2="121.321" y2="171.65"/>
	</g>
	<polygon fill="#FFFFFF" stroke="#CCCCCC" stroke-miterlimit="10" points="124.643,169.57 136.072,122.686 214.08,36.061 
		247.686,66.348 169.555,152.867 	"/>
	<g>
		<polygon fill="none" stroke="#CCCCCC" stroke-width="8" stroke-miterlimit="10" points="124.643,169.57 166.475,153.701 
			135.656,125.876 		"/>
		<polyline fill="none" stroke="#CCCCCC" stroke-width="8" stroke-miterlimit="10" points="169.555,152.867 247.686,66.348 
			236.564,56.308 158.42,142.842 		"/>
		<path fill="none" stroke="#CCCCCC" stroke-width="8" stroke-miterlimit="10" d="M147.23,132.768"/>
		<polyline fill="none" stroke="#CCCCCC" stroke-width="8" stroke-miterlimit="10" points="236.564,56.308 225.257,46.124 
			147.23,132.768 		"/>
		<polyline fill="none" stroke="#CCCCCC" stroke-width="8" stroke-miterlimit="10" points="136.072,122.686 214.08,36.061 
			225.257,46.124 		"/>
		<polygon fill="#C8C9CA" stroke="#CCCCCC" stroke-width="8" stroke-miterlimit="10" points="124.3,169.953 136.416,165.104 
			127.738,157.291 		"/>
	</g>
</g>
</svg>
