<?xml version="1.0" encoding="utf-8"?>
<!-- Generator: Adobe Illustrator 16.0.0, SVG Export Plug-In . SVG Version: 6.00 Build 0)  -->
<!DOCTYPE svg PUBLIC "-//W3C//DTD SVG 1.1//EN" "http://www.w3.org/Graphics/SVG/1.1/DTD/svg11.dtd">
<svg version="1.1" id="Layer_1" xmlns="http://www.w3.org/2000/svg" xmlns:xlink="http://www.w3.org/1999/xlink" x="0px" y="0px"
	 width="130.442px" height="130.364px" viewBox="0 0 130.442 130.364" enable-background="new 0 0 130.442 130.364"
	 xml:space="preserve">
<g>
	<g>
		<g>
			<g>
				<path class="finger-print-svg" d="M2.783,79.296c-0.7,0-1.325-0.491-1.469-1.203c-2.946-14.608-0.92-29.326,5.858-42.561
					c0.377-0.737,1.281-1.029,2.019-0.651c0.737,0.378,1.029,1.281,0.651,2.019C3.377,49.525,1.445,63.564,4.255,77.5
					c0.164,0.813-0.362,1.604-1.174,1.768C2.981,79.287,2.881,79.296,2.783,79.296z"/>
			</g>
			<g>
				<path class="finger-print-svg" d="M13.779,29.151c-0.307,0-0.616-0.094-0.883-0.288c-0.669-0.488-0.816-1.427-0.327-2.097
					C22.194,13.579,36.314,4.539,52.33,1.309c14.211-2.862,28.584-1.011,41.565,5.359c0.744,0.365,1.051,1.264,0.686,2.008
					c-0.364,0.745-1.262,1.052-2.008,0.686C80.19,3.285,66.48,1.515,52.923,4.25c-15.278,3.08-28.749,11.704-37.931,24.285
					C14.699,28.938,14.242,29.151,13.779,29.151z"/>
			</g>
			<g>
				<path class="finger-print-svg" d="M127.639,54.121c-0.7,0-1.325-0.491-1.469-1.203c-3.167-15.701-12.126-29.412-25.229-38.606
					c-0.678-0.476-0.842-1.411-0.366-2.089s1.411-0.844,2.09-0.366c13.734,9.638,23.127,24.01,26.445,40.468
					c0.164,0.813-0.361,1.604-1.174,1.768C127.837,54.111,127.737,54.121,127.639,54.121z"/>
			</g>
		</g>
	</g>
	<g>
		<g>
			<g>
				<path class="finger-print-svg" d="M128.932,67.99c-0.01,0-0.02,0-0.029,0c-0.828-0.017-1.487-0.7-1.471-1.529
					c0.087-4.521-0.326-9.08-1.228-13.55c-0.164-0.813,0.361-1.604,1.174-1.768c0.813-0.159,1.604,0.361,1.767,1.174
					c0.944,4.685,1.378,9.463,1.286,14.202C130.415,67.337,129.747,67.99,128.932,67.99z"/>
			</g>
			<g>
				<path class="finger-print-svg" d="M3.427,82.007c-0.674,0-1.287-0.457-1.455-1.141c-0.227-0.918-0.435-1.845-0.624-2.781
					c-0.163-0.813,0.363-1.604,1.175-1.767c0.813-0.161,1.603,0.362,1.767,1.175c0.18,0.894,0.378,1.777,0.594,2.654
					c0.199,0.804-0.292,1.617-1.096,1.815C3.667,81.994,3.546,82.007,3.427,82.007z"/>
			</g>
		</g>
	</g>
	<g>
		<path class="finger-print-svg" d="M48.771,128.242c-0.352,0-0.705-0.123-0.99-0.373c-0.622-0.547-0.684-1.495-0.137-2.117
			c14.609-16.627,20.482-38.588,16.114-60.249c-0.164-0.813,0.362-1.604,1.174-1.768c0.812-0.16,1.603,0.362,1.767,1.174
			c4.556,22.588-1.568,45.486-16.8,62.823C49.603,128.069,49.188,128.242,48.771,128.242z"/>
	</g>
	<g>
		<path class="finger-print-svg" d="M40.539,125.421c-0.378,0-0.755-0.142-1.047-0.426c-0.593-0.579-0.605-1.528-0.026-2.121
			c5.888-6.038,10.426-13.079,13.488-20.928c0.301-0.771,1.171-1.156,1.943-0.853c0.771,0.301,1.153,1.171,0.852,1.942
			c-3.209,8.226-7.965,15.604-14.135,21.932C41.318,125.27,40.929,125.421,40.539,125.421z"/>
	</g>
	<g>
		<path class="finger-print-svg" d="M57.686,129.958c-0.323,0-0.648-0.104-0.923-0.318c-0.652-0.51-0.768-1.452-0.258-2.105
			c14.087-18.025,19.575-41.209,15.059-63.604c-0.018-0.085-0.027-0.17-0.029-0.255c-0.386-1.598-1.346-2.971-2.723-3.885
			c-1.447-0.961-3.18-1.303-4.884-0.958c-3.396,0.685-5.642,3.917-5.15,7.307c0.053,0.107,0.093,0.223,0.118,0.344
			c1.785,8.851,1.738,17.777-0.138,26.533c-0.173,0.81-0.973,1.322-1.781,1.152c-0.81-0.174-1.326-0.971-1.152-1.781
			c1.763-8.225,1.832-16.609,0.207-24.929c-0.061-0.116-0.106-0.241-0.132-0.374c-1.035-5.136,2.301-10.157,7.436-11.193
			c5.141-1.032,10.159,2.301,11.195,7.438c0.02,0.096,0.029,0.19,0.03,0.284c4.59,23.17-1.122,47.127-15.69,65.77
			C58.573,129.759,58.132,129.958,57.686,129.958z"/>
	</g>
	<g>
		<path class="finger-print-svg" d="M33.015,121.649c-0.401,0-0.8-0.159-1.096-0.476c-0.566-0.604-0.535-1.554,0.07-2.12
			c12.841-12.013,19.103-29.551,16.75-46.913c-0.111-0.82,0.464-1.576,1.285-1.688c0.819-0.117,1.576,0.464,1.688,1.285
			c2.483,18.323-4.124,36.83-17.673,49.507C33.75,121.515,33.382,121.649,33.015,121.649z"/>
	</g>
	<g>
		<path class="finger-print-svg" d="M82.583,80.716c-0.827,0-1.498-0.669-1.5-1.496c-0.016-5.623-0.594-11.297-1.716-16.864
			c-0.015-0.075-0.024-0.15-0.028-0.225c-0.802-3.693-2.971-6.871-6.125-8.968c-3.217-2.137-7.073-2.894-10.858-2.13
			c-5.68,1.146-10.115,5.551-11.299,11.224c-0.169,0.81-0.969,1.327-1.774,1.162c-0.811-0.17-1.332-0.964-1.162-1.775
			c1.429-6.849,6.784-12.168,13.643-13.552c4.568-0.919,9.227-0.009,13.111,2.573c3.884,2.58,6.53,6.519,7.451,11.091
			c0.016,0.079,0.025,0.158,0.029,0.236c1.131,5.687,1.713,11.479,1.729,17.22c0.002,0.828-0.668,1.502-1.496,1.504
			C82.585,80.716,82.584,80.716,82.583,80.716z"/>
	</g>
	<g>
		<path class="finger-print-svg" d="M67.246,130.364c-0.292,0-0.587-0.085-0.846-0.262c-0.684-0.468-0.858-1.401-0.391-2.085
			c7.921-11.576,12.942-25.019,14.522-38.873c0.094-0.823,0.837-1.417,1.66-1.32c0.824,0.094,1.414,0.837,1.32,1.66
			c-1.635,14.339-6.831,28.249-15.027,40.227C68.194,130.135,67.725,130.364,67.246,130.364z"/>
	</g>
	<g>
		<path class="finger-print-svg" d="M26.217,117.057c-0.42,0-0.838-0.176-1.134-0.518c-0.542-0.627-0.475-1.574,0.152-2.116
			c12.527-10.849,18.325-27.625,15.181-43.857c-0.051-0.105-0.089-0.218-0.113-0.336c-2.769-13.736,6.153-27.165,19.889-29.935
			c2.317-0.466,4.673-0.611,7.009-0.429c0.826,0.064,1.443,0.786,1.379,1.611s-0.779,1.454-1.612,1.379
			c-2.058-0.157-4.138-0.033-6.183,0.38c-12.001,2.42-19.835,14.065-17.606,26.061c0.049,0.104,0.087,0.215,0.11,0.331
			c3.507,17.397-2.658,35.431-16.089,47.063C26.915,116.937,26.565,117.057,26.217,117.057z"/>
	</g>
	<g>
		<path class="finger-print-svg" d="M77.4,129.21c-0.258,0-0.519-0.066-0.757-0.206c-0.715-0.419-0.955-1.338-0.535-2.053
			c11.712-19.968,15.641-43.468,11.063-66.17c-0.013-0.063-0.021-0.125-0.026-0.187c-1.336-6.355-5.348-11.805-11.029-14.971
			c-0.723-0.403-0.982-1.317-0.579-2.041s1.314-0.984,2.04-0.58c6.502,3.625,11.075,9.887,12.547,17.18
			c0.014,0.064,0.021,0.13,0.026,0.194c4.664,23.368,0.599,47.542-11.454,68.092C78.417,128.946,77.915,129.21,77.4,129.21z"/>
	</g>
	<g>
		<path class="finger-print-svg" d="M20.172,111.733c-0.434,0-0.865-0.188-1.162-0.55c-0.525-0.641-0.431-1.586,0.21-2.11
			c5.122-4.195,9.097-9.678,11.496-15.855c0.301-0.772,1.17-1.156,1.941-0.855c0.772,0.3,1.155,1.169,0.855,1.941
			c-2.586,6.658-6.871,12.568-12.391,17.09C20.843,111.622,20.506,111.733,20.172,111.733z"/>
	</g>
	<g>
		<path class="finger-print-svg" d="M97.144,97.672c-0.082,0-0.164-0.007-0.246-0.02c-0.818-0.135-1.371-0.907-1.236-1.725
			c2.005-12.167,1.773-24.521-0.686-36.72c-0.008-0.041-0.016-0.082-0.02-0.123c-3.363-16.345-19.369-26.953-35.744-23.646
			C42.9,38.728,32.27,54.595,35.386,70.902c0.043,0.096,0.076,0.196,0.097,0.3c0.839,4.163,1.038,8.396,0.591,12.578
			c-0.088,0.823-0.825,1.421-1.651,1.332c-0.824-0.088-1.42-0.827-1.332-1.65c0.404-3.775,0.24-7.595-0.488-11.357
			c-0.043-0.096-0.077-0.196-0.098-0.301c-3.637-18.036,8.078-35.668,26.113-39.306c18.038-3.632,35.666,8.08,39.302,26.114
			c0.009,0.043,0.016,0.085,0.02,0.127c2.509,12.516,2.738,25.192,0.681,37.678C98.5,97.151,97.864,97.672,97.144,97.672z"/>
	</g>
	<g>
		<path class="finger-print-svg" d="M88.06,126.157c-0.221,0-0.443-0.049-0.656-0.151c-0.744-0.363-1.054-1.261-0.691-2.006
			c2.856-5.86,5.158-12.019,6.841-18.302c0.214-0.801,1.036-1.271,1.837-1.062c0.801,0.215,1.275,1.037,1.061,1.837
			c-1.732,6.47-4.102,12.808-7.041,18.841C89.149,125.847,88.616,126.157,88.06,126.157z"/>
	</g>
	<g>
		<path class="finger-print-svg" d="M99.137,120.619c-0.179,0-0.358-0.031-0.536-0.099c-0.773-0.296-1.16-1.163-0.864-1.938
			c7.417-19.392,9.165-40.443,5.057-60.885c-0.005-0.021-0.011-0.043-0.015-0.064c-1.104-5.47-3.315-10.51-6.572-14.979
			c-0.488-0.67-0.34-1.608,0.329-2.096c0.67-0.489,1.608-0.341,2.096,0.328c3.5,4.804,5.88,10.216,7.075,16.088
			c0.006,0.022,0.01,0.044,0.015,0.066c4.237,21.019,2.446,42.67-5.183,62.613C100.31,120.252,99.741,120.619,99.137,120.619z"/>
	</g>
	<g>
		<path class="finger-print-svg" d="M90.462,35.913c-0.335,0-0.671-0.111-0.95-0.34c-8.938-7.321-20.558-10.215-31.873-7.931
			c-2.912,0.587-5.747,1.507-8.426,2.734c-0.751,0.342-1.643,0.014-1.988-0.739c-0.345-0.754-0.014-1.644,0.739-1.989
			c2.888-1.322,5.944-2.314,9.082-2.947c12.201-2.457,24.729,0.657,34.367,8.552c0.641,0.524,0.734,1.47,0.21,2.11
			C91.326,35.725,90.896,35.913,90.462,35.913z"/>
	</g>
	<g>
		<path class="finger-print-svg" d="M14.896,105.758c-0.439,0-0.874-0.191-1.17-0.561c-0.519-0.646-0.416-1.59,0.23-2.109
			c8.831-7.093,12.967-18.348,10.839-29.434c-0.038-0.089-0.067-0.182-0.086-0.279c-3.048-15.113,2.499-30.544,14.477-40.271
			c0.644-0.524,1.588-0.424,2.11,0.219c0.522,0.643,0.424,1.588-0.219,2.109c-11.034,8.961-16.184,23.14-13.484,37.063
			c0.038,0.089,0.067,0.183,0.087,0.28c2.478,12.282-2.062,24.793-11.845,32.652C15.557,105.65,15.225,105.758,14.896,105.758z"/>
	</g>
	<g>
		<path class="finger-print-svg" d="M10.399,99.154c-0.426,0-0.849-0.18-1.146-0.53c-0.536-0.632-0.457-1.578,0.175-2.114
			c6.18-5.236,9.06-13.384,7.554-21.317c-0.031-0.078-0.056-0.16-0.073-0.244c-0.518-2.564-0.834-5.184-0.94-7.787
			c-0.034-0.828,0.609-1.526,1.437-1.561c0.851-0.046,1.527,0.61,1.56,1.438c0.097,2.359,0.377,4.734,0.833,7.063
			c0.032,0.08,0.057,0.163,0.074,0.248c1.832,9.084-1.428,18.452-8.506,24.45C11.086,99.037,10.742,99.154,10.399,99.154z"/>
	</g>
	<g>
		<path class="finger-print-svg" d="M113.134,63.45c-0.73,0-1.371-0.535-1.481-1.279c-0.292-1.972-0.642-3.973-1.036-5.95
			c-0.017-0.052-0.03-0.105-0.041-0.159c-2.443-12.118-9.458-22.558-19.754-29.398c-10.295-6.84-22.637-9.262-34.754-6.817
			c-18.856,3.802-33.167,18.5-36.46,37.446c-0.143,0.816-0.923,1.364-1.735,1.221c-0.816-0.142-1.363-0.918-1.221-1.734
			c3.506-20.174,18.745-35.825,38.823-39.874c12.903-2.602,26.046-0.023,37.008,7.261c10.916,7.253,18.369,18.308,21.001,31.141
			c0.017,0.054,0.031,0.108,0.043,0.164c0.418,2.08,0.785,4.187,1.094,6.26c0.121,0.82-0.444,1.583-1.264,1.704
			C113.282,63.445,113.208,63.45,113.134,63.45z"/>
	</g>
	<g>
		<path class="finger-print-svg" d="M110.421,111.569c-0.127,0-0.258-0.016-0.387-0.051c-0.801-0.213-1.276-1.035-1.063-1.836
			c3.272-12.276,4.526-24.93,3.727-37.608c-0.053-0.827,0.575-1.54,1.402-1.592c0.824-0.057,1.539,0.576,1.592,1.402
			c0.82,13.004-0.466,25.98-3.822,38.571C111.69,111.126,111.085,111.569,110.421,111.569z"/>
	</g>
	<g>
		<path class="finger-print-svg" d="M6.644,91.745c-0.365,0-0.73-0.133-1.02-0.4c-0.607-0.563-0.643-1.512-0.08-2.119
			c3.112-3.357,4.46-8.012,3.628-12.492c-0.025-0.069-0.046-0.141-0.061-0.213C2.874,45.585,22.967,15.344,53.902,9.106
			c6.293-1.269,12.679-1.479,18.979-0.628c0.821,0.11,1.396,0.866,1.286,1.688c-0.111,0.821-0.867,1.402-1.688,1.285
			c-5.97-0.807-12.02-0.605-17.984,0.597C25.257,17.943,6.24,46.468,12.008,75.702c0.027,0.071,0.048,0.146,0.063,0.221
			c1.108,5.49-0.51,11.226-4.326,15.342C7.449,91.583,7.047,91.745,6.644,91.745z"/>
	</g>
	<g>
		<path class="finger-print-svg" d="M121.427,96.642c-0.063,0-0.125-0.004-0.188-0.012c-0.822-0.103-1.406-0.852-1.303-1.674
			c1.666-13.386,1.158-26.932-1.507-40.263c-0.023-0.065-0.042-0.134-0.057-0.204c-3.884-19.256-17.927-34.946-36.649-40.948
			c-0.788-0.253-1.223-1.098-0.97-1.887s1.097-1.224,1.886-0.971c19.689,6.313,34.475,22.778,38.631,43.003
			c0.025,0.067,0.045,0.137,0.059,0.208c2.766,13.716,3.299,27.655,1.584,41.433C122.818,96.086,122.172,96.642,121.427,96.642z"/>
	</g>
</g>
</svg>
