<?xml version="1.0" encoding="utf-8"?>
<!-- Generator: Adobe Illustrator 16.0.0, SVG Export Plug-In . SVG Version: 6.00 Build 0)  -->
<!DOCTYPE svg PUBLIC "-//W3C//DTD SVG 1.1//EN" "http://www.w3.org/Graphics/SVG/1.1/DTD/svg11.dtd">
<svg version="1.1" id="Layer_1" xmlns="http://www.w3.org/2000/svg" xmlns:xlink="http://www.w3.org/1999/xlink" x="0px" y="0px"
	 width="83.856px" height="136.31px" viewBox="0 0 83.856 136.31" enable-background="new 0 0 83.856 136.31" xml:space="preserve">
<g>
	<path class="locker-svg" d="M71.765,50.212V28.98c-0.005-0.735-0.149-7.369-3.594-14.211C64.78,8.032,57.616,0,42.75,0
		c-14.867,0-22.03,8.032-25.422,14.769c-3.445,6.843-3.588,13.477-3.594,14.246V50.19h-0.918C5.738,50.19,0,55.928,0,63.007v60.488
		c0,7.078,5.738,12.815,12.815,12.815h58.223c7.08,0,12.817-5.737,12.817-12.815V63.007C83.856,56.172,78.505,50.588,71.765,50.212z
		 M24.132,29.061c0.008-0.311,0.18-5.217,2.622-9.887c3.087-5.904,8.32-8.775,15.996-8.775c7.675,0,12.908,2.871,15.995,8.775
		c2.441,4.67,2.613,9.576,2.622,9.887v21.13H24.132V29.061z"/>
	<circle fill="#FFFFFF" cx="42.75" cy="92.068" r="28.484"/>
	<path class="locker-svg" d="M57.67,89.807H47.076c-0.461-0.882-1.184-1.604-2.064-2.064V73.079c0-1.248-1.014-2.26-2.262-2.26
		c-1.249,0-2.261,1.012-2.261,2.26v14.664c-1.558,0.814-2.622,2.445-2.622,4.325c0,2.697,2.186,4.884,4.883,4.884
		c1.881,0,3.511-1.064,4.326-2.623H57.67c1.248,0,2.261-1.012,2.261-2.261S58.918,89.807,57.67,89.807z"/>
</g>
</svg>
