<?xml version="1.0" encoding="utf-8"?>
<!-- Generator: Adobe Illustrator 16.0.0, SVG Export Plug-In . SVG Version: 6.00 Build 0)  -->
<!DOCTYPE svg PUBLIC "-//W3C//DTD SVG 1.1//EN" "http://www.w3.org/Graphics/SVG/1.1/DTD/svg11.dtd">
<svg version="1.1" id="Layer_1" xmlns="http://www.w3.org/2000/svg" xmlns:xlink="http://www.w3.org/1999/xlink" x="0px" y="0px"
	 width="165.506px" height="363.921px" viewBox="0 0 165.506 363.921" enable-background="new 0 0 165.506 363.921"
	 xml:space="preserve">
<g>
	<path fill="#FFFFFF" d="M82.752,44.559C37.049,44.559,0,81.609,0,127.312c0,113.52,82.752,206.883,82.752,206.883
		s82.754-93.363,82.754-206.883C165.506,81.609,128.456,44.559,82.752,44.559z M82.752,194.152c-36.914,0-66.84-29.926-66.84-66.84
		s29.926-66.839,66.84-66.839c36.915,0,66.84,29.926,66.84,66.839S119.667,194.152,82.752,194.152z"/>
	<path fill="#FFFFFF" d="M117.764,122.008H92.903c-1.082-2.07-2.775-3.764-4.846-4.847V82.753c0-2.93-2.375-5.304-5.305-5.304
		c-2.93,0-5.305,2.375-5.305,5.304v34.407c-3.656,1.915-6.154,5.739-6.154,10.152c0,6.329,5.131,11.459,11.459,11.459
		c4.413,0,8.239-2.499,10.153-6.155h24.859c2.93,0,5.303-2.375,5.303-5.304C123.067,124.382,120.694,122.008,117.764,122.008z"/>
	<ellipse fill="#FFFFFF" cx="82.753" cy="18.566" rx="29.706" ry="18.566"/>
	<path fill="#FFFFFF" d="M29.623,273.742l22.545,35.227c0,0-32.408,23.953-35.227,54.953
		C16.941,363.921-12.648,323.058,29.623,273.742z"/>
	<path fill="#FFFFFF" d="M135.879,273.742l-22.543,35.227c0,0,32.408,23.953,35.225,54.953
		C148.561,363.921,178.153,323.058,135.879,273.742z"/>
</g>
</svg>
