<?xml version="1.0" encoding="utf-8"?>
<!-- Generator: Adobe Illustrator 16.0.0, SVG Export Plug-In . SVG Version: 6.00 Build 0)  -->
<!DOCTYPE svg PUBLIC "-//W3C//DTD SVG 1.1//EN" "http://www.w3.org/Graphics/SVG/1.1/DTD/svg11.dtd">
<svg version="1.1" xmlns="http://www.w3.org/2000/svg" xmlns:xlink="http://www.w3.org/1999/xlink" x="0px" y="0px" width="500px"
	 height="500px" viewBox="0 0 500 500" enable-background="new 0 0 500 500" xml:space="preserve">
<g id="Layer_2">
	<rect x="-301.54" y="-103.448" fill="#B3174C" width="1067.511" height="748"/>
	<g>
		<path fill="#FFFFFF" d="M109.196,388.829c-0.357-0.029-0.714-0.055-1.073-0.09C108.123,388.739,108.361,388.913,109.196,388.829z"
			/>
		<path fill="#FFFFFF" d="M381.206,375.739c0,0-6.203,0.91-5.196-13.037l2.855-15.629v-0.002l9.354-51.205
			c2.571-14.074-2.619-26.811-11.594-28.449c-0.648-0.119-1.299-0.17-1.949-0.168c-0.394-0.02-0.855,0.002-1.396,0.084
			c-1.884,0.242-3.743,0.965-5.516,2.086c-6.278,3.412-16.645,11.779-33.347,31.316c-0.039,0.045-0.074,0.086-0.112,0.131l0.913-5
			c2.571-14.074-2.619-26.811-11.594-28.449c-0.779-0.143-1.562-0.191-2.343-0.162c-3.813-0.258-14.485,3.209-40.364,33.48
			c-0.039,0.045-0.074,0.086-0.112,0.131l0.913-5c2.571-14.074-2.619-26.811-11.594-28.449c0,0-13.252-5.678-31.752,30.572
			c0,0-13.5,35-37,63.25c0,0-8.25,13-22.5,8.5c0,0-3.427-2.867-7.943-9.125c2.238-2.365,3.443-3.875,3.443-3.875
			c40.066-42.232,53.024-98.771,57.138-126.964l73.021-18.66c0.321-0.083,0.628-0.218,0.905-0.4l42.907-28.221
			c1.046-0.688,1.555-1.953,1.276-3.173c-0.278-1.221-1.285-2.141-2.526-2.307l-44.293-5.938c-0.38-0.051-0.769-0.027-1.142,0.066
			L232.564,188.8c-5.695-90.768-39.191-77.06-39.191-77.06s-5.093,1.652-12.29,7.326c-8.164,6.353-19.146,17.922-28.473,38.289
			l0.001-0.003c0,0-0.002,0.006-0.003,0.006c-3.273,7.149-6.34,15.385-9.011,24.855c-1.648,4.906-3.135,9.664-4.065,13.365
			c-1.074,4.153-2.354,9.986-3.658,17.932l-40.49,10.348c-1.372,0.351-2.313,1.613-2.255,3.028l1.386,34.157
			c0.037,0.904,0.48,1.744,1.206,2.285c0.523,0.391,1.152,0.594,1.792,0.594c0.248,0,0.498-0.031,0.743-0.094l32.716-8.359
			c-2.362,25.996-2.643,58.65,6.274,82.707c1.276,4.691,2.854,8.715,4.794,11.822c0,0,3.608,8.83,8.25,16.625l0.109-0.641
			c0.075,0.127,0.148,0.256,0.224,0.383c-9.875,13.25-38.686,22.193-41.427,22.465c18.727,1.498,34.52-7.26,46.177-15.715
			c12.384,14.59,33.245,23.16,59-23.375c0,0,30.795-56.318,31.463-41.279l-8.968,49.094c-2.571,14.072,2.62,26.811,11.595,28.449
			c8.974,1.641,18.332-8.439,20.903-22.514l9.685-53.02c0.069-0.064,0.107-0.1,0.107-0.1s27.353-43.436,22.31-15.83
			c-0.47,2.572-0.664,4.434-0.63,5.695l-10.47,57.318c-2.571,14.072,2.62,26.811,11.595,28.449
			c8.974,1.641,18.332-8.439,20.903-22.514l9.685-53.02c0.069-0.064,0.107-0.1,0.107-0.1s25.26-40.109,22.749-18.725l-12.039,65.908
			c-2.571,14.072,2.62,26.811,11.595,28.449c0.739,0.135,1.481,0.184,2.223,0.164c9.073,0.385,43.197-1.047,49.688-43.594
			C406.873,342.573,394.539,376.905,381.206,375.739z M327.768,180.478l0.301,8.17l-21.985,14.461l-1.041-25.678L327.768,180.478z
			 M131.714,248.071v-0.002c-0.038,0.344-0.074,0.697-0.111,1.043l-31.243,7.984l-1.137-28.028l35.659-9.112
			C133.775,227.632,132.682,236.912,131.714,248.071z M163.744,189.888c8.313-35.155,20.106-72.214,33.463-75.981
			c0,0,19.897-7.429,12.872,80.64l-49.565,12.667C162.313,197.051,163.672,190.251,163.744,189.888z M159.387,213.694l50.159-12.818
			l23.357-5.969l67.146-17.16l1.138,28.029l-68.82,17.587l-26.022,6.649l-51.502,13.162
			C156.268,232.647,157.906,222.372,159.387,213.694z M169.196,350.612c-0.456,0.506-0.841,0.941-1.189,1.34
			c-0.546,0.498-1.088,0.986-1.634,1.412c-4.76-8.398-9.192-20.29-12.099-35.824c-0.052-0.415-0.139-0.916-0.263-1.501
			c-0.416-2.335-0.804-4.735-1.148-7.231c-1.787-16.208-0.74-41.498-0.722-41.923c0.492-5.607,1.134-11.45,1.867-17.304
			l51.441-13.146c-2.385,16.514-7.217,45.697-14.592,70.896c-0.136,0.424-8.955,27.867-20.358,41.762
			C170.002,349.677,169.563,350.188,169.196,350.612z"/>
	</g>
</g>
<g id="Layer_3">
</g>
</svg>
