<?xml version="1.0" encoding="utf-8"?>
<!-- Generator: Adobe Illustrator 16.0.0, SVG Export Plug-In . SVG Version: 6.00 Build 0)  -->
<!DOCTYPE svg PUBLIC "-//W3C//DTD SVG 1.1//EN" "http://www.w3.org/Graphics/SVG/1.1/DTD/svg11.dtd">
<svg version="1.1" id="Layer_2" xmlns="http://www.w3.org/2000/svg" xmlns:xlink="http://www.w3.org/1999/xlink" x="0px" y="0px"
	 width="425.197px" height="425.197px" viewBox="0 0 425.197 425.197" enable-background="new 0 0 425.197 425.197"
	 xml:space="preserve">
<g>
	<circle class="logo-colored" fill="#B3174C" cx="212.598" cy="161.089" r="78"/>
	<path class="logo-colored" fill="#B3174C" d="M212.598,161.089h-78c0,107,78,195,78,195s78-88,78-195H212.598z"/>
	<circle fill="#FFFFFF" cx="212.598" cy="161.089" r="63"/>
	<path class="logo-colored" fill="#B3174C" d="M245.598,156.089h-23.432c-1.021-1.95-2.618-3.547-4.568-4.568v-32.432c0-2.761-2.239-5-5-5s-5,2.239-5,5
		v32.431c-3.446,1.805-5.801,5.409-5.801,9.569c0,5.965,4.836,10.801,10.801,10.801c4.16,0,7.765-2.355,9.569-5.801h23.431
		c2.761,0,5-2.239,5-5S248.359,156.089,245.598,156.089z"/>
	<ellipse class="logo-colored" fill="#B3174C" cx="212.598" cy="58.589" rx="28" ry="17.5"/>
	<path class="logo-colored" fill="#B3174C" d="M162.521,299.108l21.25,33.203c0,0-30.547,22.578-33.203,51.797
		C150.568,384.108,122.677,345.593,162.521,299.108z"/>
	<path class="logo-colored" fill="#B3174C" d="M262.674,299.108l-21.25,33.203c0,0,30.547,22.578,33.203,51.797
		C274.627,384.108,302.518,345.593,262.674,299.108z"/>
</g>
</svg>
