<?xml version="1.0" encoding="utf-8"?>
<!-- Generator: Adobe Illustrator 16.0.0, SVG Export Plug-In . SVG Version: 6.00 Build 0)  -->
<!DOCTYPE svg PUBLIC "-//W3C//DTD SVG 1.1//EN" "http://www.w3.org/Graphics/SVG/1.1/DTD/svg11.dtd">
<svg version="1.1" id="Layer_1" xmlns="http://www.w3.org/2000/svg" xmlns:xlink="http://www.w3.org/1999/xlink" x="0px" y="0px"
	 width="50px" height="50px" viewBox="0 0 50 50" enable-background="new 0 0 50 50" xml:space="preserve">
<path fill="#FFFFFF" d="M42.652,24.917c-0.872-4.841-3.578-9.053-7.618-11.859c-2.873-1.996-6.179-3.092-9.589-3.256l3.594-3.594
	l-2.475-2.475l-7.785,7.784l7.785,7.784l2.475-2.475l-3.515-3.515c2.672,0.174,5.258,1.054,7.514,2.62
	c3.271,2.273,5.463,5.684,6.169,9.605c1.459,8.095-3.938,15.866-12.033,17.325c-8.095,1.467-15.866-3.939-17.326-12.034
	c-0.76-4.218,0.333-8.563,3-11.923l-2.741-2.176c-3.292,4.147-4.641,9.512-3.703,14.72c1.603,8.895,9.38,15.152,18.116,15.152
	c1.081,0,2.176-0.096,3.275-0.294c4.841-0.873,9.053-3.579,11.858-7.619C42.46,34.649,43.524,29.758,42.652,24.917z"/>
</svg>
