<?xml version="1.0" encoding="utf-8"?>
<!-- Generator: Adobe Illustrator 16.0.0, SVG Export Plug-In . SVG Version: 6.00 Build 0)  -->
<!DOCTYPE svg PUBLIC "-//W3C//DTD SVG 1.1//EN" "http://www.w3.org/Graphics/SVG/1.1/DTD/svg11.dtd">
<svg version="1.1" id="Layer_1" xmlns="http://www.w3.org/2000/svg" xmlns:xlink="http://www.w3.org/1999/xlink" x="0px" y="0px"
	 width="33.676px" height="38.271px" viewBox="591.605 401.648 33.676 38.271"
	 enable-background="new 591.605 401.648 33.676 38.271" xml:space="preserve">
<path fill="#FFFFFF" d="M625.281,437.649l-10.627-14.084c2.116-2.346,3.418-5.442,3.418-8.844c0-7.297-5.937-13.233-13.233-13.233
	c-7.298,0-13.233,5.937-13.233,13.233c0,7.297,5.938,13.235,13.233,13.235c2.633,0,5.083-0.783,7.147-2.113l10.501,13.916
	L625.281,437.649z M595.105,414.72c0-5.368,4.366-9.733,9.733-9.733s9.733,4.366,9.733,9.733c0,2.963-1.335,5.616-3.43,7.404
	l-0.955,0.721c-1.537,1.016-3.374,1.609-5.349,1.609C599.471,424.454,595.105,420.088,595.105,414.72z"/>
</svg>
