<?xml version="1.0" encoding="utf-8"?>
<!-- Generator: Adobe Illustrator 16.0.0, SVG Export Plug-In . SVG Version: 6.00 Build 0)  -->
<!DOCTYPE svg PUBLIC "-//W3C//DTD SVG 1.1//EN" "http://www.w3.org/Graphics/SVG/1.1/DTD/svg11.dtd">
<svg version="1.1" id="Layer_2" xmlns="http://www.w3.org/2000/svg" xmlns:xlink="http://www.w3.org/1999/xlink" x="0px" y="0px"
	 width="637.795px" height="1133.858px" viewBox="0 0 637.795 1133.858" enable-background="new 0 0 637.795 1133.858"
	 xml:space="preserve">
<linearGradient id="SVGID_1_" gradientUnits="userSpaceOnUse" x1="318.8979" y1="1133.8579" x2="318.8979" y2="4.882813e-004">
	<stop  offset="0" style="stop-color:#600D14"/>
	<stop  offset="1" style="stop-color:#8B1D4D"/>
</linearGradient>
<rect fill="url(#SVGID_1_)" width="637.795" height="1133.858"/>
<g>
	<circle fill="#B2174C" cx="318.897" cy="900.031" r="45.898"/>
	<path fill="#B2174C" d="M318.897,900.031H273c0,62.962,45.898,114.745,45.898,114.745s45.898-51.782,45.898-114.745H318.897z"/>
	<circle fill="#FFFFFF" cx="318.897" cy="900.031" r="37.071"/>
	<path fill="#B2174C" d="M338.316,897.089h-13.788c-0.601-1.147-1.541-2.087-2.688-2.688v-19.084c0-1.625-1.317-2.942-2.942-2.942
		c-1.625,0-2.942,1.317-2.942,2.942v19.083c-2.028,1.062-3.414,3.183-3.414,5.63c0,3.51,2.846,6.356,6.355,6.356
		c2.448,0,4.569-1.386,5.631-3.414h13.788c1.625,0,2.942-1.317,2.942-2.942C341.258,898.407,339.94,897.089,338.316,897.089z"/>
	<ellipse fill="#B2174C" cx="318.897" cy="839.717" rx="16.476" ry="10.298"/>
	<path fill="#B2174C" d="M289.43,981.247l12.504,19.538c0,0-17.975,13.285-19.538,30.479
		C282.396,1031.263,265.985,1008.599,289.43,981.247z"/>
	<path fill="#B2174C" d="M348.364,981.247l-12.504,19.538c0,0,17.975,13.285,19.538,30.479
		C355.397,1031.263,371.809,1008.599,348.364,981.247z"/>
</g>
<g>
	<path fill="#F7F7F7" stroke="#FFFFFF" stroke-miterlimit="10" d="M259.469,114.79v7.968c0,0.112-0.056,0.168-0.168,0.168h-0.552
		c-0.112,0-0.168-0.056-0.168-0.168v-7.968h-2.472c-0.112,0-0.168-0.056-0.168-0.168v-0.408c0-0.112,0.056-0.168,0.168-0.168h5.856
		c0.112,0,0.168,0.056,0.168,0.168v0.408c0,0.112-0.056,0.168-0.168,0.168H259.469z"/>
	<path fill="#F7F7F7" stroke="#FFFFFF" stroke-miterlimit="10" d="M264.077,122.926h-0.576c-0.112,0-0.168-0.056-0.168-0.168v-8.544
		c0-0.112,0.056-0.168,0.168-0.168h0.576c0.112,0,0.168,0.056,0.168,0.168v8.544C264.245,122.87,264.189,122.926,264.077,122.926z"
		/>
	<path fill="#F7F7F7" stroke="#FFFFFF" stroke-miterlimit="10" d="M275.501,122.758c0,0.112-0.056,0.168-0.168,0.168h-0.54
		c-0.112,0-0.168-0.056-0.168-0.168v-7.956c-0.592,1.472-1.124,2.788-1.596,3.948c-0.2,0.496-0.396,0.982-0.588,1.458
		c-0.192,0.476-0.364,0.9-0.516,1.272c-0.152,0.372-0.276,0.674-0.372,0.906c-0.096,0.232-0.144,0.352-0.144,0.36
		c-0.041,0.08-0.1,0.12-0.18,0.12h-0.54c-0.056,0-0.096-0.01-0.12-0.03c-0.024-0.02-0.044-0.05-0.06-0.09l-3.312-7.944v7.956
		c0,0.112-0.056,0.168-0.168,0.168h-0.54c-0.112,0-0.168-0.056-0.168-0.168v-8.4c0-0.168,0.014-0.266,0.042-0.294
		c0.028-0.028,0.126-0.042,0.294-0.042h0.9c0.064,0,0.11,0.008,0.138,0.024c0.028,0.016,0.054,0.056,0.078,0.12l3.192,7.764
		l3.096-7.776c0.032-0.088,0.096-0.132,0.192-0.132h0.912c0.168,0,0.266,0.014,0.294,0.042c0.028,0.028,0.042,0.126,0.042,0.294
		V122.758z"/>
	<path fill="#F7F7F7" stroke="#FFFFFF" stroke-miterlimit="10" d="M278.321,122.938c-0.168,0-0.266-0.014-0.294-0.042
		c-0.028-0.028-0.042-0.126-0.042-0.294v-8.268c0-0.152,0.014-0.242,0.042-0.27c0.028-0.028,0.118-0.042,0.27-0.042h4.164
		c0.112,0,0.168,0.056,0.168,0.168v0.42c0,0.112-0.056,0.168-0.168,0.168h-3.6v3.168h3.42c0.112,0,0.168,0.056,0.168,0.168v0.432
		c0,0.112-0.056,0.168-0.168,0.168h-3.42v3.456h3.744c0.112,0,0.168,0.056,0.168,0.168v0.432c0,0.112-0.056,0.168-0.168,0.168
		H278.321z"/>
	<path fill="#F7F7F7" stroke="#FFFFFF" stroke-miterlimit="10" d="M297.401,122.758c0,0.112-0.056,0.168-0.168,0.168h-0.54
		c-0.112,0-0.168-0.056-0.168-0.168v-7.956c-0.592,1.472-1.124,2.788-1.596,3.948c-0.2,0.496-0.396,0.982-0.588,1.458
		c-0.192,0.476-0.364,0.9-0.516,1.272c-0.152,0.372-0.276,0.674-0.372,0.906c-0.096,0.232-0.144,0.352-0.144,0.36
		c-0.041,0.08-0.1,0.12-0.18,0.12h-0.54c-0.056,0-0.096-0.01-0.12-0.03c-0.024-0.02-0.044-0.05-0.06-0.09l-3.312-7.944v7.956
		c0,0.112-0.056,0.168-0.168,0.168h-0.54c-0.112,0-0.168-0.056-0.168-0.168v-8.4c0-0.168,0.014-0.266,0.042-0.294
		c0.028-0.028,0.126-0.042,0.294-0.042h0.9c0.064,0,0.11,0.008,0.138,0.024c0.028,0.016,0.054,0.056,0.078,0.12l3.192,7.764
		l3.096-7.776c0.032-0.088,0.096-0.132,0.192-0.132h0.912c0.168,0,0.266,0.014,0.294,0.042c0.028,0.028,0.042,0.126,0.042,0.294
		V122.758z"/>
	<path fill="#F7F7F7" stroke="#FFFFFF" stroke-miterlimit="10" d="M307.109,122.758c0.04,0.112,0.004,0.168-0.108,0.168h-0.576
		c-0.048,0-0.09-0.008-0.126-0.024c-0.036-0.016-0.07-0.064-0.102-0.144l-0.888-2.208h-4.512c-0.152,0.376-0.3,0.744-0.444,1.104
		c-0.144,0.36-0.288,0.728-0.432,1.104c-0.032,0.08-0.066,0.128-0.102,0.144c-0.036,0.016-0.078,0.024-0.126,0.024h-0.564
		c-0.112,0-0.148-0.056-0.108-0.168l3.528-8.592c0.04-0.096,0.112-0.144,0.216-0.144h0.732c0.104,0,0.176,0.048,0.216,0.144
		L307.109,122.758z M305.021,119.782c-0.336-0.832-0.658-1.654-0.966-2.466c-0.308-0.812-0.63-1.634-0.966-2.466
		c-0.336,0.832-0.666,1.654-0.99,2.466c-0.324,0.813-0.654,1.634-0.99,2.466H305.021z"/>
	<path fill="#F7F7F7" stroke="#FFFFFF" stroke-miterlimit="10" d="M314.584,122.062c0.048-0.016,0.092-0.018,0.132-0.006
		s0.06,0.042,0.06,0.09l0.024,0.468c0.008,0.104-0.048,0.176-0.168,0.216c-0.264,0.088-0.536,0.152-0.816,0.192
		c-0.28,0.04-0.632,0.06-1.056,0.06c-1.392,0-2.5-0.424-3.324-1.272c-0.408-0.416-0.71-0.9-0.906-1.452
		c-0.196-0.552-0.294-1.176-0.294-1.872c0-1.368,0.412-2.476,1.236-3.324c0.84-0.848,1.936-1.272,3.288-1.272
		c0.192,0,0.366,0.004,0.522,0.012c0.156,0.008,0.308,0.02,0.456,0.036c0.148,0.016,0.294,0.036,0.438,0.06
		c0.144,0.024,0.296,0.056,0.456,0.096c0.12,0.024,0.176,0.1,0.168,0.228l-0.024,0.48c-0.016,0.112-0.076,0.148-0.18,0.108
		c-0.312-0.104-0.608-0.174-0.888-0.21c-0.28-0.036-0.596-0.054-0.948-0.054c-1.128,0-2.028,0.36-2.7,1.08
		c-0.624,0.696-0.936,1.616-0.936,2.76c0,0.576,0.076,1.096,0.228,1.56c0.152,0.464,0.384,0.868,0.696,1.212
		c0.648,0.72,1.552,1.076,2.712,1.068c0.336-0.008,0.67-0.032,1.002-0.072C314.094,122.214,314.369,122.15,314.584,122.062z"/>
	<path fill="#F7F7F7" stroke="#FFFFFF" stroke-miterlimit="10" d="M322.997,122.758c0,0.112-0.056,0.168-0.168,0.168h-0.54
		c-0.112,0-0.168-0.056-0.168-0.168v-4.044h-4.548v4.044c0,0.112-0.056,0.168-0.168,0.168h-0.54c-0.112,0-0.168-0.056-0.168-0.168
		v-8.568c0-0.112,0.056-0.168,0.168-0.168h0.54c0.112,0,0.168,0.056,0.168,0.168v3.768h4.548v-3.768
		c0-0.112,0.056-0.168,0.168-0.168h0.54c0.112,0,0.168,0.056,0.168,0.168V122.758z"/>
	<path fill="#F7F7F7" stroke="#FFFFFF" stroke-miterlimit="10" d="M326.021,122.926h-0.576c-0.112,0-0.168-0.056-0.168-0.168v-8.544
		c0-0.112,0.056-0.168,0.168-0.168h0.576c0.112,0,0.168,0.056,0.168,0.168v8.544C326.188,122.87,326.132,122.926,326.021,122.926z"
		/>
	<path fill="#F7F7F7" stroke="#FFFFFF" stroke-miterlimit="10" d="M328.888,122.926h-0.54c-0.112,0-0.168-0.056-0.168-0.168v-8.4
		c0-0.168,0.014-0.266,0.042-0.294c0.028-0.028,0.126-0.042,0.294-0.042h0.552c0.104,0,0.174,0.01,0.21,0.03
		s0.074,0.066,0.114,0.138l4.524,7.764v-7.764c0-0.112,0.056-0.168,0.168-0.168h0.528c0.112,0,0.168,0.056,0.168,0.168v8.4
		c0,0.168-0.014,0.266-0.042,0.294c-0.028,0.028-0.126,0.042-0.294,0.042h-0.732c-0.064,0-0.11-0.008-0.138-0.024
		c-0.028-0.016-0.062-0.056-0.102-0.12l-4.416-7.632v7.608C329.056,122.87,329,122.926,328.888,122.926z"/>
	<path fill="#F7F7F7" stroke="#FFFFFF" stroke-miterlimit="10" d="M337.36,122.938c-0.168,0-0.266-0.014-0.294-0.042
		c-0.028-0.028-0.042-0.126-0.042-0.294v-8.268c0-0.152,0.014-0.242,0.042-0.27c0.028-0.028,0.118-0.042,0.27-0.042h4.164
		c0.112,0,0.168,0.056,0.168,0.168v0.42c0,0.112-0.056,0.168-0.168,0.168h-3.6v3.168h3.42c0.112,0,0.168,0.056,0.168,0.168v0.432
		c0,0.112-0.056,0.168-0.168,0.168h-3.42v3.456h3.744c0.112,0,0.168,0.056,0.168,0.168v0.432c0,0.112-0.056,0.168-0.168,0.168
		H337.36z"/>
	<path fill="#F7F7F7" stroke="#FFFFFF" stroke-miterlimit="10" d="M353.908,118.461c0,0.744-0.128,1.408-0.384,1.992
		s-0.612,1.068-1.068,1.452c-0.432,0.328-0.956,0.58-1.572,0.756c-0.616,0.176-1.312,0.264-2.088,0.264h-1.236
		c-0.168,0-0.266-0.014-0.294-0.042c-0.028-0.028-0.042-0.126-0.042-0.294v-8.208c0-0.168,0.014-0.266,0.042-0.294
		c0.028-0.028,0.126-0.042,0.294-0.042h1.884c1.52,0,2.664,0.412,3.432,1.236C353.564,116.042,353.908,117.102,353.908,118.461z
		 M353.032,118.414c0-1.272-0.353-2.212-1.056-2.82c-0.624-0.536-1.48-0.804-2.568-0.804h-1.296v7.38h0.732
		C351.636,122.169,353.032,120.918,353.032,118.414z"/>
	<path fill="#F7F7F7" stroke="#FFFFFF" stroke-miterlimit="10" d="M356.644,122.926h-0.576c-0.112,0-0.168-0.056-0.168-0.168v-8.544
		c0-0.112,0.056-0.168,0.168-0.168h0.576c0.112,0,0.168,0.056,0.168,0.168v8.544C356.812,122.87,356.756,122.926,356.644,122.926z"
		/>
	<path fill="#F7F7F7" stroke="#FFFFFF" stroke-miterlimit="10" d="M366.148,122.758c0.04,0.112,0.004,0.168-0.108,0.168h-0.576
		c-0.048,0-0.09-0.008-0.126-0.024c-0.036-0.016-0.07-0.064-0.102-0.144l-0.888-2.208h-4.512c-0.152,0.376-0.3,0.744-0.444,1.104
		c-0.144,0.36-0.288,0.728-0.432,1.104c-0.032,0.08-0.066,0.128-0.102,0.144c-0.036,0.016-0.078,0.024-0.126,0.024h-0.564
		c-0.112,0-0.148-0.056-0.108-0.168l3.528-8.592c0.04-0.096,0.112-0.144,0.216-0.144h0.732c0.104,0,0.176,0.048,0.216,0.144
		L366.148,122.758z M364.06,119.782c-0.336-0.832-0.658-1.654-0.966-2.466c-0.308-0.812-0.63-1.634-0.966-2.466
		c-0.336,0.832-0.666,1.654-0.99,2.466c-0.324,0.813-0.654,1.634-0.99,2.466H364.06z"/>
	<path fill="#F7F7F7" stroke="#FFFFFF" stroke-miterlimit="10" d="M373.492,122.758c0.016,0.04,0.016,0.078,0,0.114
		c-0.016,0.036-0.048,0.054-0.096,0.054h-0.624c-0.12,0-0.208-0.056-0.264-0.168c-0.36-0.752-0.66-1.366-0.9-1.842
		c-0.24-0.476-0.428-0.854-0.564-1.134c-0.168-0.328-0.296-0.58-0.384-0.756c-0.184,0.04-0.354,0.064-0.51,0.072
		c-0.156,0.008-0.354,0.016-0.594,0.024h-1.008v3.636c0,0.112-0.056,0.168-0.168,0.168h-0.54c-0.112,0-0.168-0.056-0.168-0.168
		v-8.352c0-0.088,0.002-0.156,0.006-0.204c0.004-0.048,0.018-0.084,0.042-0.108c0.024-0.024,0.06-0.038,0.108-0.042
		s0.116-0.006,0.204-0.006h2.268c0.456,0,0.85,0.062,1.182,0.186c0.332,0.125,0.608,0.298,0.828,0.522
		c0.22,0.224,0.384,0.496,0.492,0.816c0.108,0.32,0.162,0.676,0.162,1.068c0,0.24-0.042,0.468-0.126,0.684
		c-0.084,0.216-0.198,0.416-0.342,0.6s-0.31,0.35-0.498,0.498c-0.188,0.148-0.382,0.27-0.582,0.366L373.492,122.758z
		 M372.063,116.638c0-0.336-0.038-0.622-0.114-0.858c-0.076-0.236-0.204-0.428-0.384-0.576c-0.18-0.148-0.414-0.254-0.702-0.318
		c-0.288-0.064-0.648-0.096-1.08-0.096h-1.236v3.576h1.26c0.328,0,0.63-0.04,0.906-0.12c0.276-0.08,0.514-0.196,0.714-0.348
		c0.2-0.152,0.355-0.333,0.468-0.546C372.007,117.14,372.063,116.902,372.063,116.638z"/>
	<path fill="#F7F7F7" stroke="#FFFFFF" stroke-miterlimit="10" d="M378.375,122.758c0,0.112-0.056,0.168-0.168,0.168h-0.552
		c-0.112,0-0.168-0.056-0.168-0.168v-3.588c-0.536-0.84-1.07-1.674-1.602-2.502c-0.532-0.828-1.066-1.654-1.602-2.478
		c-0.016-0.04-0.016-0.078,0-0.114s0.048-0.054,0.096-0.054h0.684c0.096,0,0.176,0.056,0.24,0.168l2.616,4.212
		c0.48-0.728,0.932-1.43,1.356-2.106c0.424-0.676,0.876-1.378,1.356-2.106c0.056-0.112,0.136-0.168,0.24-0.168h0.6
		c0.048,0,0.082,0.018,0.102,0.054s0.018,0.074-0.006,0.114l-3.192,4.98V122.758z"/>
</g>
</svg>
