<?xml version="1.0" encoding="utf-8"?>
<!-- Generator: Adobe Illustrator 16.0.3, SVG Export Plug-In . SVG Version: 6.00 Build 0)  -->
<!DOCTYPE svg PUBLIC "-//W3C//DTD SVG 1.1//EN" "http://www.w3.org/Graphics/SVG/1.1/DTD/svg11.dtd">
<svg version="1.1" id="레이어_1" xmlns="http://www.w3.org/2000/svg" xmlns:xlink="http://www.w3.org/1999/xlink" x="0px"
	 y="0px" width="283.46px" height="283.46px" viewBox="0 0 283.46 283.46" enable-background="new 0 0 283.46 283.46"
	 xml:space="preserve">
<path fill="#FFFFFF" d="M241.727,122.278c-5.745,0-11.22,1.741-16.201,4.888c-5.129-17.131-16.233-29-29.11-29
	c-4.806,0-9.362,1.665-13.457,4.628c-8.456-38.527-35.502-66.709-67.563-66.709c-38.83,0-70.308,41.335-70.308,92.325
	c0,0.104,0.003,0.208,0.003,0.313c-2.177-0.597-4.413-0.926-6.699-0.926C17.188,127.798,0,154.567,0,187.587
	c0,33.022,17.188,59.792,38.391,59.792h203.336c23.052,0,41.738-28.006,41.738-62.55
	C283.465,150.284,264.778,122.278,241.727,122.278z"/>
</svg>
