<?xml version="1.0" encoding="utf-8"?>
<!-- Generator: Adobe Illustrator 16.0.3, SVG Export Plug-In . SVG Version: 6.00 Build 0)  -->
<!DOCTYPE svg PUBLIC "-//W3C//DTD SVG 1.1//EN" "http://www.w3.org/Graphics/SVG/1.1/DTD/svg11.dtd">
<svg version="1.1" id="레이어_1" xmlns="http://www.w3.org/2000/svg" xmlns:xlink="http://www.w3.org/1999/xlink" x="0px"
	 y="0px" width="283.46px" height="283.46px" viewBox="0 0 283.46 283.46" enable-background="new 0 0 283.46 283.46"
	 xml:space="preserve">
<path fill="#FFFFFF" d="M283.056,119.796c-0.275-0.603-0.599-1.335-0.978-2.188c-37.298-84.16-93.59-104.125-135.867-105.405V4.59
	c0-2.535-2.01-4.59-4.491-4.59c-2.481,0-4.492,2.055-4.492,4.59v7.612C94.953,13.483,38.66,33.448,1.362,117.608
	c-0.444,1.001-0.815,1.838-1.117,2.493c-0.553,1.198-0.146,2.63,0.951,3.337c1.096,0.706,2.535,0.469,3.356-0.557
	c3.959-4.943,21.803-12.097,43.71-12.097c25.464,0,43.572,9.538,44.176,12.858c0.014,1.437,1.156,2.616,2.565,2.616
	c1.37,0,2.489-1.08,2.562-2.461c0.004-0.051,0.005-0.103,0.006-0.155c0.568-3.12,16.594-11.729,39.656-12.755V230.51h-1.924v29.838
	l0.02,0.518c0.607,7.817,6.108,22.6,22.599,22.6h0.246l0.246-0.02c7.099-0.56,20.521-6.035,20.521-22.769
	c0-3.623-2.873-6.559-6.416-6.559c-3.545,0-6.417,2.936-6.417,6.559c0,7.918-6.269,9.399-8.469,9.668
	c-7.865-0.191-9.269-8.242-9.498-10.318V230.51h-1.925V110.885c23.118,1.016,39.177,9.655,39.703,12.762
	c0.147,1.325,1.243,2.328,2.549,2.328s2.401-0.999,2.55-2.324c0.561-3.308,18.673-12.867,44.163-12.867
	c21.909,0,39.752,7.153,43.712,12.097c0.509,0.636,1.256,0.951,2.013,0.962c1.416-0.001,2.564-1.175,2.564-2.624
	C283.465,120.695,283.314,120.206,283.056,119.796z"/>
</svg>
