<?xml version="1.0" encoding="utf-8"?>
<!-- Generator: Adobe Illustrator 16.0.3, SVG Export Plug-In . SVG Version: 6.00 Build 0)  -->
<!DOCTYPE svg PUBLIC "-//W3C//DTD SVG 1.1//EN" "http://www.w3.org/Graphics/SVG/1.1/DTD/svg11.dtd">
<svg version="1.1" id="레이어_1" xmlns="http://www.w3.org/2000/svg" xmlns:xlink="http://www.w3.org/1999/xlink" x="0px"
	 y="0px" width="283.46px" height="283.46px" viewBox="0 0 283.46 283.46" enable-background="new 0 0 283.46 283.46"
	 xml:space="preserve">
<path fill="#FFFFFF" d="M259.953,83.866l-9.67-11.467l-25.261,21.302l-5.524-32.992l-14.795,2.478l6.991,41.753l-23.363,19.702
	c-12.337-14.706-28.908-25.416-47.721-30.034c13-9.252,21.569-25.048,21.569-42.985C162.179,23.113,140.542,0,113.851,0
	S65.522,23.113,65.522,51.624c0,19.58,10.206,36.613,25.244,45.363c-36.271,12.676-62.42,48.532-62.42,90.789
	c0,52.848,40.897,95.689,91.346,95.689c50.448,0,91.346-42.842,91.346-95.689c0-18.697-5.124-36.138-13.974-50.876L259.953,83.866z"
	/>
</svg>
