<?xml version="1.0" encoding="utf-8"?>
<!-- Generator: Adobe Illustrator 16.0.3, SVG Export Plug-In . SVG Version: 6.00 Build 0)  -->
<!DOCTYPE svg PUBLIC "-//W3C//DTD SVG 1.1//EN" "http://www.w3.org/Graphics/SVG/1.1/DTD/svg11.dtd">
<svg version="1.1" id="레이어_1" xmlns="http://www.w3.org/2000/svg" xmlns:xlink="http://www.w3.org/1999/xlink" x="0px"
	 y="0px" width="283.46px" height="283.46px" viewBox="0 0 283.46 283.46" enable-background="new 0 0 283.46 283.46"
	 xml:space="preserve">
<circle fill="#FFFFFF" cx="141.732" cy="141.732" r="63.779"/>
<g>
	<g>
		<rect x="128.784" fill="#FFFFFF" width="24.255" height="45.996"/>
		<rect x="130.674" y="237.469" fill="#FFFFFF" width="24.255" height="45.996"/>
	</g>
	<g>
		
			<rect x="45.646" y="33.707" transform="matrix(0.7071 -0.7071 0.7071 0.7071 -23.1744 57.4624)" fill="#FFFFFF" width="24.257" height="45.996"/>
		
			<rect x="213.562" y="201.622" transform="matrix(-0.7071 0.7071 -0.7071 -0.7071 544.1075 223.8645)" fill="#FFFFFF" width="24.256" height="45.998"/>
	</g>
	<g>
		<rect y="128.535" fill="#FFFFFF" width="45.996" height="24.255"/>
		<rect x="237.469" y="128.535" fill="#FFFFFF" width="45.996" height="24.255"/>
	</g>
	<g>
		
			<rect x="45.646" y="201.622" transform="matrix(-0.7071 -0.7071 0.7071 -0.7071 -60.2008 424.3057)" fill="#FFFFFF" width="24.256" height="45.997"/>
		
			<rect x="213.562" y="33.706" transform="matrix(0.7071 0.7071 -0.7071 0.7071 106.2053 -142.9818)" fill="#FFFFFF" width="24.256" height="45.997"/>
	</g>
</g>
</svg>
